<svg xmlns="http://www.w3.org/2000/svg" viewBox="0 0 283.2 78.3">
  <path fill-rule="evenodd" d="M200.2 1h3.1c-.2 8.8 0 18.8-.1 26.8h-3.6c-1.8-5.9-3.5-11.9-7.1-16.3-3.5-4.4-8.2-8-15.8-7.4-7 .5-12.6 6-11.6 14.8.1.8.6 2.4 1.1 3.2 2.9 5.2 8.8 7.3 15.1 9.4 6.3 2 12.6 3.8 17.3 7.2 5.1 3.6 8.6 8.5 8.5 16.1 0 10.8-7.5 18.2-15.1 21.6-2.7 1.2-6.1 1.9-10.1 1.7-6-.4-9.9-2.1-13.9-4.4-1.2-.7-2.6-1.9-4.3-1.8-3.9.2-3.1 5.6-8.8 4.3-.2-9.1-.2-18.3-.2-27.6 1.1-.3 2.8 0 4.1-.1 2.5 10.2 5.8 17.9 13.6 22.6 2.2 1.3 5.3 2.7 9 3 11 .8 18.7-7.9 15.6-17.9-3.9-12.4-19.4-11.2-30.4-17.3-3.6-2-6.6-4.9-8.5-8.8-1.8-3.7-3.1-9-1.6-14.3 1.3-4.6 5-9.3 8.8-11.8 3-2 7.6-3.7 12-3.8 6.1-.2 10.8 1.9 14.8 4.2 1.1.6 2 2.1 3.7 2 2.4-.3 2.6-4.1 4.4-5.4zM.3 1.1h19.2c14.3 18.1 27.7 37.2 41.8 55.6.2-6.1.1-13.4.1-20.8 0-7.3.4-14.7 0-20.9C61 8.4 57.2 5.2 50 5.3c.1-1.3-.2-3 .1-4.1 9-.1 17.7.2 26.6.1.3 1.1 0 2.8.1 4.1-5.5.2-10 2.1-10.6 7.4-.5 4.9 0 10.4 0 16v47.9c-1.8-.1-3.8.1-5.4-.1C46.2 57.2 32 37.4 17.2 18.1c-.2 10.1-.1 24.4-.1 36.4 0 5.1-.7 10.7 1.1 13.7 2 3.4 5.9 4 10.9 4.4 0 1.4.1 2.9-.2 4-9.9-.1-18.7.2-28.6.1-.3-1.1 0-2.7-.1-4 5.3-.3 10.8-1.7 11.5-7 .3-2.2 0-4.6 0-7v-41c0-2.4.4-5 .1-6.7-.2-1.3-1.9-3.1-3-3.8C6.5 5.7 3 5.6 0 5.3c-.1-1.6.2-2.7 0-3.8 0-.3.1-.4.3-.4zm79.4.2c18.3.8 38.7-2.2 51.5 3.6 6 2.7 11.2 7.4 14.8 12.8 3.8 5.7 5.8 12.8 5.8 21.7 0 17.2-8.6 28.5-20.8 34.1-6.7 3.1-15 3.1-24.5 3.1-9.2 0-18-.2-27.1-.1-.2-1.1-.2-2.9 0-4 4.4-.2 8.7-.2 10-4 1-3 .5-9.2.5-13.9 0-9.1 0-19.7.1-28.1 0-4.5.3-9.2-.1-13.9-.3-3.2-1.8-5.9-4.4-6.7-1.6-.5-4.5-.5-5.8-.6-.2-1.1-.1-2.5-.1-3.7 0 0-.1-.2.1-.3zm22.7 7.8c-.8 1.6-.7 4.5-.7 7v46.1c0 2.7-.2 5.4.6 7.1 1.2 2.7 4.6 3.2 8 3.5 8 .7 15-.7 19.4-4.4 3-2.5 4.9-5.9 6.1-10 2.4-8 2.4-20.4 1.6-29.8-.5-5.4-1.5-9.3-3.5-12.7C130 9.2 123 5.2 111.7 5.8c-4.2.2-7.7 0-9.3 3.3zm180.8-7.9c.1 1.1 0 2.8 0 4.2-4.8.2-8.6 1.1-10 4.6-.8 2.2-.6 5.4-.6 8.2v26c0 5.7.6 12.2-.5 16.9C269 74 254.8 80.9 238 77.4c-8.9-1.9-16.9-6.9-19.6-15.1-1.1-3.5-1.1-8-1.1-12.6 0-9.1-.1-17.5-.1-27 0-2.2.1-4.5 0-6.8-.2-4.8-.3-8.7-4-10-2.1-.7-4.4-.2-6.8-.7v-4h33.1c0 1.9 0 2.6-.1 4.2-4.9-.1-8.8.2-10.2 3.5-.6 1.5-.4 3.8-.4 5.8.2 6.3 0 13.8 0 19.2 0 4.4.1 8.9.1 12.8.1 4.5-.3 8.7.2 12.8 1.4 10.1 11 15.8 22.6 13.8 7.2-1.2 13-5.8 15.1-12.2 1.2-3.7.8-8.2.8-12.7 0-8.9-.1-17.9-.1-26 0-6.7.4-13.4-4.3-15.8-2-1-4.4-.7-7.3-1.2V1.3c9.3 0 19.1-.4 27.3-.1z" clip-rule="evenodd" fill="#ffc72a"/>
</svg>
